# xmcd
#
# Track frame offsets: 
#        150
#        35287
#        61237
#        92399
#        126636
#        151423
#        168223
#        200510
#        216752
#        228227
#        261527
#        284214
#        296589
#
# Disc length: 4366 seconds
#
# Revision: 0
# Processed by: cddbd v1.5.2PL0 Copyright (c) Steve Scherf et al.
# Submitted via: ExactAudioCopyFreeDBPlugin 1.0
#
DISCID=c4110c0d
DTITLE=Kings Of Strings - Live in Belgrade 2012
DYEAR=2013
DGENRE=Acoustic
TTITLE0=Dizzy Fingers, Gallopin' Guitar, Appel Indirect
TTITLE1=Double J
TTITLE2=For Sephora
TTITLE3=Butcher's Dance
TTITLE4=I'll See You In My Dreams
TTITLE5=Rondo a la Turk
TTITLE6=Willy's Shades
TTITLE7=Piper's Dance
TTITLE8=Angelina
TTITLE9=Gypsy Song
TTITLE10=Amazing Grace
TTITLE11=Improvisation Intro to Nuages by Stochelo Rosenberg
TTITLE12=Heavy Artillery
EXTD=
EXTT0=
EXTT1=
EXTT2=
EXTT3=
EXTT4=
EXTT5=
EXTT6=
EXTT7=
EXTT8=
EXTT9=
EXTT10=
EXTT11=
EXTT12=
PLAYORDER=
